<svg xmlns="http://www.w3.org/2000/svg">
	<symbol viewBox="0 0 1280 800" id="htmlacademy">
		<title>htmlacademy</title>
		<path d="M640.8 303l-.8-.1-76.7 8v140.6l76.7 45.6 76.7-45.6V310.9l-75.9-7.9zm65.9 142.8L640 485.4l-66.7-39.7v-57.6l66.4 39.5.1 7.2-45.5-27.1-.1 7 45.7 27.5.1 7.3-45.7-27.2-.1 7 45.7 27.5 46.2-27.6v-7h-.1v-22.8l20.6-12.3v58.7zm-.1-66.1l-18.2 10.7-8.4 5-40.1-23.9-.1 7 34.3 20.4-.3.2-.7.4-4.9 2.9-28.3-16.9-.1 7 22.4 13.3-5.3 3.5-.1.1-16.9-10-.1 7 11.1 6.5-11.3 6.8-66-39.3 66.1-39.8v0l66.9 39.1zm.1-7l-67-39.5v0h0v0l-66.3 39.5V320l66.7-7 66.7 7v52.7z" stroke="#231f20" stroke-miterlimit="10" />
	</symbol>
	<symbol viewBox="0 0 146.3 40.4" id="logo-footer">
		<title>logo-footer</title>
		<path d="M71.9 18.7c0-.7.6-1.3 1.3-1.3h7.2c5.1 0 8.4 2.7 8.4 7.1v.1c0 4.9-4.1 7.4-8.9 7.4h-5.5v6.8c0 .7-.6 1.3-1.3 1.3-.7 0-1.3-.6-1.3-1.3l.1-20.1zM80 29.6c3.7 0 6.2-2 6.2-5v-.1c0-3.2-2.4-4.9-6.1-4.9h-5.7v9.9l5.6.1zm13.6-11.1c0-.7.6-1.3 1.3-1.3.7 0 1.3.6 1.3 1.3v20.3c0 .7-.6 1.3-1.3 1.3-.7 0-1.3-.6-1.3-1.3V18.5zm9.1 0c0-.7.6-1.3 1.3-1.3h.4c.6 0 .9.3 1.3.7l13.7 17.4v-17c0-.7.5-1.3 1.3-1.3.7 0 1.2.6 1.2 1.3v20.3c0 .7-.5 1.2-1.2 1.2h-.1c-.5 0-.9-.3-1.3-.8l-14-17.9v17.4c0 .7-.5 1.3-1.3 1.3-.7 0-1.2-.6-1.2-1.3l-.1-20zm25.5 0c0-.7.6-1.3 1.3-1.3.7 0 1.3.6 1.3 1.3v12.3l12.8-13.2c.3-.3.6-.5 1-.5.7 0 1.2.6 1.2 1.3 0 .4-.2.6-.4.9l-8 7.9 8.6 10.6c.2.3.4.5.4.9 0 .7-.6 1.3-1.3 1.3-.5 0-.8-.3-1-.6L135.6 29l-4.9 4.9v4.9c0 .7-.6 1.3-1.3 1.3-.7 0-1.3-.6-1.3-1.3l.1-20.3z" fill="#283645" />
		<path d="M60.5 28L55.3 6.6C54.9 4.3 52.7 0 46.7 0c-.8 0-1.5.7-1.5 1.5S45.9 3 46.7 3c4.9 0 5.6 3.7 5.6 4.1l4.8 19.7H55c-.7-5.9-5.8-10.5-11.9-10.5s-11.2 4.6-11.9 10.5h-1.8c-.7-5.9-5.8-10.5-11.9-10.5s-11.3 4.6-12 10.5H3.4L8.2 7.1C8.3 6.7 9 3 13.8 3c.8 0 1.5-.7 1.5-1.5S14.7 0 13.8 0c-6 0-8.2 4.3-8.6 6.7L0 28.1c-.3 1.1.5 1.8 1.4 1.8h4c.7 5.9 5.8 10.5 11.9 10.5s11.2-4.6 11.9-10.5H31c.7 5.9 5.8 10.5 11.9 10.5S54.3 35.8 55 29.8h4c.9 0 1.7-.7 1.5-1.8zm-34.2 1.8c-.7 4.3-4.4 7.5-8.9 7.5S9.2 34 8.5 29.8c-.1-.5-.1-1-.1-1.5s.1-1 .1-1.5c.7-4.3 4.4-7.5 8.9-7.5s8.2 3.3 8.9 7.5c.1.5.1 1 .1 1.5.1.6 0 1.1-.1 1.5zm25.7 0c-.7 4.3-4.4 7.5-8.9 7.5s-8.2-3.3-8.9-7.5c-.1-.5-.1-1-.1-1.5s.1-1 .1-1.5c.7-4.3 4.4-7.5 8.9-7.5s8.2 3.3 8.9 7.5c.1.5.1 1 .1 1.5 0 .6 0 1.1-.1 1.5z" fill="#d22856" />
	</symbol>
	<symbol viewBox="0 0 146.3 40.4" id="logo-header">
		<title>logo-header</title>
		<path d="M71.9 18.7c0-.7.6-1.3 1.3-1.3h7.2c5.1 0 8.4 2.7 8.4 7.1v.1c0 4.9-4.1 7.4-8.9 7.4h-5.5v6.8c0 .7-.6 1.3-1.3 1.3-.7 0-1.3-.6-1.3-1.3l.1-20.1zM80 29.6c3.7 0 6.2-2 6.2-5v-.1c0-3.2-2.4-4.9-6.1-4.9h-5.7v9.9l5.6.1zm13.6-11.1c0-.7.6-1.3 1.3-1.3.7 0 1.3.6 1.3 1.3v20.3c0 .7-.6 1.3-1.3 1.3-.7 0-1.3-.6-1.3-1.3V18.5zm9.1 0c0-.7.6-1.3 1.3-1.3h.4c.6 0 .9.3 1.3.7l13.7 17.4v-17c0-.7.5-1.3 1.3-1.3.7 0 1.2.6 1.2 1.3v20.3c0 .7-.5 1.2-1.2 1.2h-.1c-.5 0-.9-.3-1.3-.8l-14-17.9v17.4c0 .7-.5 1.3-1.3 1.3-.7 0-1.2-.6-1.2-1.3l-.1-20zm25.5 0c0-.7.6-1.3 1.3-1.3.7 0 1.3.6 1.3 1.3v12.3l12.8-13.2c.3-.3.6-.5 1-.5.7 0 1.2.6 1.2 1.3 0 .4-.2.6-.4.9l-8 7.9 8.6 10.6c.2.3.4.5.4.9 0 .7-.6 1.3-1.3 1.3-.5 0-.8-.3-1-.6L135.6 29l-4.9 4.9v4.9c0 .7-.6 1.3-1.3 1.3-.7 0-1.3-.6-1.3-1.3l.1-20.3zM60.5 28L55.3 6.6C54.9 4.3 52.7 0 46.7 0c-.8 0-1.5.7-1.5 1.5S45.9 3 46.7 3c4.9 0 5.6 3.7 5.6 4.1l4.8 19.7H55c-.7-5.9-5.8-10.5-11.9-10.5s-11.2 4.6-11.9 10.5h-1.8c-.7-5.9-5.8-10.5-11.9-10.5s-11.3 4.6-12 10.5H3.4L8.2 7.1C8.3 6.7 9 3 13.8 3c.8 0 1.5-.7 1.5-1.5S14.7 0 13.8 0c-6 0-8.2 4.3-8.6 6.7L0 28.1c-.3 1.1.5 1.8 1.4 1.8h4c.7 5.9 5.8 10.5 11.9 10.5s11.2-4.6 11.9-10.5H31c.7 5.9 5.8 10.5 11.9 10.5S54.3 35.8 55 29.8h4c.9 0 1.7-.7 1.5-1.8zm-34.2 1.8c-.7 4.3-4.4 7.5-8.9 7.5S9.2 34 8.5 29.8c-.1-.5-.1-1-.1-1.5s.1-1 .1-1.5c.7-4.3 4.4-7.5 8.9-7.5s8.2 3.3 8.9 7.5c.1.5.1 1 .1 1.5.1.6 0 1.1-.1 1.5zm25.7 0c-.7 4.3-4.4 7.5-8.9 7.5s-8.2-3.3-8.9-7.5c-.1-.5-.1-1-.1-1.5s.1-1 .1-1.5c.7-4.3 4.4-7.5 8.9-7.5s8.2 3.3 8.9 7.5c.1.5.1 1 .1 1.5 0 .6 0 1.1-.1 1.5z" fill="#fff" />
	</symbol>
	<symbol viewBox="0 0 74.4 22.9" id="logo-mobile">
		<title>logo-mobile</title>
		<path d="M0 1.4C0 .7.6.1 1.3.1h7.2c5.1 0 8.4 2.7 8.4 7.1v.1c0 4.9-4.1 7.4-8.9 7.4H2.5v6.8c0 .7-.6 1.3-1.3 1.3-.7 0-1.3-.6-1.3-1.3V1.4zm8.1 11c3.7 0 6.2-2 6.2-5 0-3.2-2.4-4.9-6.1-4.9H2.5v9.9h5.6zM21.7 1.3c0-.7.6-1.3 1.3-1.3.7 0 1.3.6 1.3 1.3v20.3c0 .7-.6 1.3-1.3 1.3-.7 0-1.3-.6-1.3-1.3V1.3zm9.2 0c0-.7.6-1.3 1.3-1.3h.4c.6 0 .9.3 1.3.7l13.7 17.4v-17C47.5.6 48 0 48.7 0c.7 0 1.2.6 1.2 1.3v20.3c0 .7-.5 1.2-1.2 1.2h-.1c-.5 0-.9-.3-1.3-.8l-14-17.9v17.5c0 .7-.5 1.3-1.3 1.3-.7 0-1.2-.6-1.2-1.3V1.3zm25.4 0c0-.7.6-1.3 1.3-1.3.7 0 1.3.6 1.3 1.3v12.3L71.7.5c.3-.3.6-.5 1-.5.7 0 1.2.6 1.2 1.3 0 .4-.2.6-.4.9l-8 7.9 8.6 10.6c.2.3.4.5.4.9 0 .7-.6 1.3-1.3 1.3-.5 0-.8-.3-1-.6l-8.4-10.5-4.9 4.9v4.9c0 .7-.6 1.3-1.3 1.3-.7 0-1.3-.6-1.3-1.3V1.3z" fill="#fff" />
	</symbol>
	<symbol viewBox="0 0 49.9 24" id="menu-burger">
		<title>menu-burger</title>
		<style>
			.st0 {
				fill: #fff
			}

		</style>
		<g id="menu-burger-miu">
			<g id="menu-burger-editor_list_view_hambuger_menu_glyph">
				<path id="menu-burger-path-1" class="st0" d="M1.1 0C.5 0 0 .4 0 1v2c0 .6.5 1 1.1 1h47.7c.6 0 1.1-.4 1.1-1V1c0-.6-.5-1-1.1-1H1.1zm0 10c-.6 0-1.1.4-1.1 1v2c0 .6.5 1 1.1 1h47.7c.6 0 1.1-.4 1.1-1v-2c0-.6-.5-1-1.1-1H1.1zm0 10c-.6 0-1.1.4-1.1 1v2c0 .6.5 1 1.1 1h47.7c.6 0 1.1-.4 1.1-1v-2c0-.6-.5-1-1.1-1H1.1z" />
				<path id="menu-burger-path-1_1_" class="st0" d="M1.1 0C.5 0 0 .4 0 1v2c0 .6.5 1 1.1 1h47.7c.6 0 1.1-.4 1.1-1V1c0-.6-.5-1-1.1-1H1.1zm0 10c-.6 0-1.1.4-1.1 1v2c0 .6.5 1 1.1 1h47.7c.6 0 1.1-.4 1.1-1v-2c0-.6-.5-1-1.1-1H1.1zm0 10c-.6 0-1.1.4-1.1 1v2c0 .6.5 1 1.1 1h47.7c.6 0 1.1-.4 1.1-1v-2c0-.6-.5-1-1.1-1H1.1z" />
			</g>
		</g>
	</symbol>
	<symbol viewBox="0 0 23.9 23.9" id="menu-cross">
		<title>menu-cross</title>
		<path d="M15.1 11.9l8.6-8.6c.3-.3.3-.8 0-1.1L21.6.1c-.2 0-.4-.1-.6-.1-.2 0-.4.1-.5.2l-8.6 8.6L3.4.2c-.3-.3-.8-.3-1.1 0L.2 2.3c-.3.3-.3.8 0 1.1L8.8 12 .2 20.6c-.3.3-.3.8 0 1.1l2.1 2.1c.1.1.3.2.5.2s.4-.1.5-.2l8.6-8.6 8.6 8.6c.1.1.3.2.5.2s.4-.1.5-.2l2.1-2.1c.3-.3.3-.8 0-1.1l-8.5-8.7z" fill="#fff" />
	</symbol>
</svg>
